<svg width="34" height="44" viewBox="0 0 34 44" fill="none" xmlns="http://www.w3.org/2000/svg">
    <path d="M9 27L2 42M8 10C8 10 10 7.878 10 6C10 3.334 8 2 8 2M16 10C16 10 18 7.878 18 6C18 3.334 16 2 16 2M24 10C24 10 26 7.878 26 6C26 3.334 24 2 24 2" stroke="black" stroke-width="3" stroke-linecap="round" stroke-linejoin="round"/>
    <path d="M25 33H7" stroke="black" stroke-width="3" stroke-linejoin="round"/>
    <path d="M23 27L27.2 36M29 42C29.7956 42 30.5587 41.6839 31.1213 41.1213C31.6839 40.5587 32 39.7957 32 39C32 38.2044 31.6839 37.4413 31.1213 36.8787C30.5587 36.3161 29.7956 36 29 36C28.2044 36 27.4413 36.3161 26.8787 36.8787C26.3161 37.4413 26 38.2044 26 39C26 39.7957 26.3161 40.5587 26.8787 41.1213C27.4413 41.6839 28.2044 42 29 42Z" stroke="black" stroke-width="3" stroke-linecap="round" stroke-linejoin="round"/>
    <path d="M15.9993 27.9998C19.5049 28.0002 22.883 26.6854 25.466 24.3154C28.049 21.9453 29.6489 18.6925 29.9493 15.1998C29.9597 15.0438 29.9374 14.8874 29.8839 14.7404C29.8304 14.5935 29.7469 14.4593 29.6387 14.3464C29.5306 14.2335 29.4001 14.1444 29.2555 14.0847C29.111 14.0251 28.9556 13.9961 28.7993 13.9998H3.19933C3.04302 13.9961 2.88765 14.0251 2.74313 14.0847C2.59861 14.1444 2.4681 14.2335 2.35992 14.3464C2.25173 14.4593 2.16824 14.5935 2.11477 14.7404C2.0613 14.8874 2.03901 15.0438 2.04933 15.1998C2.34981 18.6925 3.94965 21.9453 6.53264 24.3154C9.11562 26.6854 12.4938 28.0002 15.9993 27.9998Z" stroke="black" stroke-width="3"/>
</svg>
