<svg width="30" height="21" viewBox="0 0 30 21" fill="none" xmlns="http://www.w3.org/2000/svg">
    <path d="M14.625 0C14.0016 0 13.5 0.501562 13.5 1.125C13.5 1.74844 14.0016 2.25 14.625 2.25H15.8297L17.4516 5.25H10.4484L9.16406 3.46875C8.95312 3.17344 8.61094 3 8.25 3H5.625C5.00156 3 4.5 3.50156 4.5 4.125C4.5 4.74844 5.00156 5.25 5.625 5.25H7.67344L8.70938 6.68906L7.4625 9.17813C6.99375 9.06094 6.50156 9 6 9C2.68594 9 0 11.6859 0 15C0 18.3141 2.68594 21 6 21C9.06094 21 11.5828 18.7078 11.9531 15.75H14.25C14.6484 15.75 15.0141 15.5391 15.2203 15.1969L19.1953 8.47031L20.2125 10.35C18.8625 11.4516 18 13.125 18 15C18 18.3141 20.6859 21 24 21C27.3141 21 30 18.3141 30 15C30 11.6859 27.3141 9 24 9C23.3672 9 22.7578 9.09844 22.1859 9.28125L17.5969 0.7875C17.3344 0.3 16.8281 0 16.275 0H14.625ZM21.4969 12.7359L23.0109 15.5344C23.3062 16.0828 23.9906 16.2844 24.5344 15.9891C25.0781 15.6938 25.2844 15.0094 24.9891 14.4656L23.475 11.6672C23.6437 11.6391 23.8219 11.625 24 11.625C25.8656 11.625 27.375 13.1344 27.375 15C27.375 16.8656 25.8656 18.375 24 18.375C22.1344 18.375 20.625 16.8656 20.625 15C20.625 14.1281 20.9531 13.3359 21.4969 12.7359ZM6.24375 15.75H9.29062C8.94844 17.2547 7.60313 18.375 6 18.375C4.13438 18.375 2.625 16.8656 2.625 15C2.625 13.1344 4.13438 11.625 6 11.625C6.07969 11.625 6.15938 11.6297 6.23906 11.6344L5.10469 13.9078C4.68281 14.7563 5.29688 15.7547 6.24375 15.7547V15.75ZM7.82344 13.5L10.2 8.75156L13.6172 13.4953L13.6125 13.5H7.81875H7.82344ZM12.0703 7.5H17.1516L14.8594 11.3812L12.0656 7.5H12.0703Z" fill="black"/>
</svg>
