<svg width="30" height="29" viewBox="0 0 30 29" fill="none" xmlns="http://www.w3.org/2000/svg">
    <path d="M20.3101 1.76609C19.7862 1.76598 19.2689 1.88239 18.7956 2.10688C18.3223 2.33137 17.9049 2.65832 17.5735 3.06405C17.2422 3.46977 17.0052 3.94412 16.8798 4.45272C16.7544 4.96133 16.7437 5.49146 16.8485 6.00471C16.877 6.14066 16.873 6.2814 16.8369 6.41552C16.8008 6.54964 16.7335 6.67334 16.6406 6.77659C16.5477 6.87983 16.4317 6.9597 16.3021 7.0097C16.1726 7.0597 16.033 7.07843 15.8948 7.06437C15.312 7.06437 14.761 7.20565 14.2771 7.45644C14.0124 6.92496 13.6819 6.42891 13.2934 5.97999C13.8269 5.67827 14.409 5.47207 15.0135 5.37068V5.29827C15.0135 4.6025 15.1506 3.91353 15.4169 3.27071C15.6831 2.6279 16.0734 2.04382 16.5654 1.55183C17.0574 1.05984 17.6414 0.669571 18.2843 0.403307C18.9271 0.137044 19.616 0 20.3118 0C21.0076 0 21.6966 0.137044 22.3394 0.403307C22.9822 0.669571 23.5663 1.05984 24.0583 1.55183C24.5503 2.04382 24.9405 2.6279 25.2068 3.27071C25.473 3.91353 25.6101 4.6025 25.6101 5.29827L25.6083 5.37068C26.3021 5.49118 26.965 5.74878 27.5581 6.12843C28.1512 6.50808 28.6627 7.00215 29.0626 7.58176C29.4626 8.16138 29.7429 8.8149 29.8874 9.50414C30.0318 10.1934 30.0374 10.9045 29.9038 11.5959C29.7702 12.2873 29.5001 12.9452 29.1093 13.531C28.7186 14.1168 28.2149 14.6189 27.6278 15.0078C27.0408 15.3967 26.3821 15.6647 25.6902 15.7961C24.9984 15.9274 24.2873 15.9196 23.5985 15.773L23.9871 17.3748C24.0972 17.8296 24.1027 18.3035 24.003 18.7607C23.9034 19.2179 23.7012 19.6465 23.4117 20.0142C23.1223 20.3819 22.7531 20.679 22.3321 20.8833C21.911 21.0875 21.4491 21.1934 20.9812 21.1931H19.6354C19.1674 21.193 18.7055 21.0866 18.2846 20.882C17.8636 20.6773 17.4947 20.3798 17.2056 20.0117C16.9165 19.6437 16.7147 19.2148 16.6155 18.7574C16.5163 18.3 16.5223 17.826 16.6331 17.3713L17.4278 14.1005C17.4552 13.9878 17.5045 13.8815 17.5729 13.7879C17.6413 13.6942 17.7275 13.6149 17.8265 13.5546C17.9256 13.4942 18.0356 13.454 18.1502 13.4361C18.2648 13.4183 18.3818 13.4232 18.4945 13.4506C18.6072 13.4779 18.7134 13.5272 18.8071 13.5956C18.9008 13.6641 18.98 13.7503 19.0404 13.8493C19.1007 13.9484 19.141 14.0583 19.1588 14.1729C19.1767 14.2876 19.1718 14.4046 19.1444 14.5173L18.3497 17.7898C18.3024 17.9846 18.2999 18.1875 18.3424 18.3834C18.3849 18.5793 18.4713 18.7629 18.5951 18.9205C18.7189 19.0782 18.8768 19.2056 19.057 19.2934C19.2372 19.3811 19.435 19.4268 19.6354 19.427H20.9812C21.1819 19.4273 21.38 19.382 21.5607 19.2945C21.7413 19.207 21.8997 19.0796 22.0239 18.9219C22.1481 18.7642 22.2348 18.5804 22.2775 18.3843C22.3202 18.1881 22.3178 17.9849 22.2704 17.7898L21.4757 14.5155C21.4345 14.344 21.4456 14.1642 21.5076 13.9991C21.5696 13.834 21.6796 13.6912 21.8234 13.5892C21.9672 13.4872 22.1383 13.4305 22.3146 13.4266C22.4909 13.4227 22.6644 13.4716 22.8126 13.5671C23.2768 13.8655 23.8044 14.051 24.3531 14.1087C24.9019 14.1664 25.4565 14.0948 25.9726 13.8995C26.4887 13.7042 26.9518 13.3908 27.3249 12.9843C27.698 12.5777 27.9707 12.0895 28.1211 11.5586C28.2715 11.0277 28.2954 10.4689 28.1909 9.92714C28.0864 9.38533 27.8565 8.87554 27.5195 8.43863C27.1825 8.00171 26.7478 7.64982 26.2503 7.41117C25.7528 7.17252 25.2063 7.05375 24.6546 7.06437C24.5222 7.06705 24.3909 7.0399 24.2703 6.98493C24.1498 6.92996 24.0432 6.84858 23.9584 6.74681C23.8736 6.64505 23.8128 6.52551 23.7804 6.39705C23.7481 6.26859 23.7451 6.1345 23.7716 6.00471C23.8764 5.49146 23.8657 4.96133 23.7403 4.45272C23.6149 3.94412 23.3779 3.46977 23.0466 3.06405C22.7152 2.65832 22.2978 2.33137 21.8245 2.10688C21.3512 1.88239 20.8339 1.76598 20.3101 1.76609ZM4.41523 10.5965C4.41523 10.0369 4.54823 9.4852 4.80326 8.987C5.0583 8.48881 5.42807 8.05834 5.88211 7.73109C6.33614 7.40384 6.86145 7.18917 7.41473 7.10476C7.96801 7.02036 8.53343 7.06864 9.06439 7.24563C9.59535 7.42261 10.0766 7.72324 10.4686 8.12273C10.8606 8.52222 11.1521 9.00914 11.3189 9.54337C11.4858 10.0776 11.5233 10.6438 11.4285 11.1954C11.3336 11.747 11.109 12.2681 10.7732 12.7159C10.6748 12.8471 10.6148 13.0031 10.6001 13.1664C10.5854 13.3297 10.6164 13.4939 10.6898 13.6406C10.7631 13.7873 10.8758 13.9106 11.0153 13.9969C11.1549 14.0831 11.3156 14.1287 11.4796 14.1287H12.3626C12.5968 14.1287 12.8214 14.2218 12.987 14.3874C13.1527 14.553 13.2457 14.7776 13.2457 15.0118C13.2457 15.246 13.1527 15.4706 12.987 15.6362C12.8214 15.8018 12.5968 15.8948 12.3626 15.8948H10.4076C10.2827 15.8949 10.1593 15.9215 10.0455 15.9728C9.93166 16.0241 9.83 16.0989 9.74722 16.1924C9.66444 16.2858 9.60242 16.3958 9.56525 16.515C9.52809 16.6342 9.51661 16.7599 9.5316 16.8838C10.065 21.2461 12.3732 23.7504 13.6643 24.8312C13.9733 25.0891 14.1287 25.4141 14.1287 25.6949C14.1287 25.9061 14.0448 26.1087 13.8954 26.2581C13.7461 26.4075 13.5435 26.4914 13.3322 26.4914H2.56083C2.34989 26.4909 2.14775 26.4068 1.99876 26.2575C1.84977 26.1081 1.76609 25.9058 1.76609 25.6949C1.76609 25.4123 1.92151 25.0891 2.22881 24.8312C3.52159 23.7504 5.83163 21.2461 6.36323 16.8838C6.37821 16.7599 6.36674 16.6342 6.32957 16.515C6.2924 16.3958 6.23038 16.2858 6.1476 16.1924C6.06482 16.0989 5.96316 16.0241 5.84934 15.9728C5.73551 15.9215 5.6121 15.8949 5.48725 15.8948H3.53218C3.29798 15.8948 3.07338 15.8018 2.90778 15.6362C2.74217 15.4706 2.64914 15.246 2.64914 15.0118C2.64914 14.7776 2.74217 14.553 2.90778 14.3874C3.07338 14.2218 3.29798 14.1287 3.53218 14.1287H4.41523C4.57922 14.1287 4.73997 14.0831 4.87947 13.9969C5.01897 13.9106 5.13171 13.7873 5.20505 13.6406C5.27839 13.4939 5.30943 13.3297 5.29471 13.1664C5.27998 13.0031 5.22006 12.8471 5.12167 12.7159C4.66185 12.1051 4.41382 11.361 4.41523 10.5965ZM7.94741 5.29827C7.09427 5.29804 6.25369 5.50383 5.49714 5.89814C4.74059 6.29245 4.09045 6.86363 3.602 7.56311C3.11355 8.26258 2.80123 9.06966 2.69161 9.91573C2.58198 10.7618 2.67828 11.6218 2.97233 12.4227C2.33347 12.5611 1.76833 12.9308 1.38559 13.4607C1.00286 13.9906 0.829567 14.6433 0.899035 15.2933C0.968503 15.9433 1.27583 16.5446 1.76191 16.9817C2.24799 17.4188 2.8785 17.6607 3.53218 17.6609H4.45055C3.79356 20.8363 2.06103 22.6696 1.09498 23.4767C0.483909 23.9888 0 24.7765 0 25.6949C0 27.1095 1.14796 28.2575 2.5626 28.2575H13.334C14.7469 28.2575 15.8948 27.1095 15.8948 25.6949C15.8948 24.7765 15.4109 23.9888 14.7998 23.4767C13.8338 22.6696 12.1013 20.8363 11.4443 17.6609H12.3626C13.0163 17.6607 13.6468 17.4188 14.1329 16.9817C14.619 16.5446 14.9263 15.9433 14.9958 15.2933C15.0653 14.6433 14.892 13.9906 14.5092 13.4607C14.1265 12.9308 13.5614 12.5611 12.9225 12.4227C13.2165 11.6218 13.3128 10.7618 13.2032 9.91573C13.0936 9.06966 12.7813 8.26258 12.2928 7.56311C11.8044 6.86363 11.1542 6.29245 10.3977 5.89814C9.64113 5.50383 8.80055 5.29804 7.94741 5.29827Z" fill="black"/>
</svg>
