<svg width="30" height="28" viewBox="0 0 30 28" fill="none" xmlns="http://www.w3.org/2000/svg">
    <path d="M1.64754 0L5.42925 6.64387H19.5039V2.11087L1.64754 0ZM3.45298 7.80867V9.07701H20.0863C23.1924 9.07701 25.4055 10.973 26.7645 13.2379C27.994 15.2763 28.5893 17.6189 28.6993 19.4243H30C29.8641 17.3018 29.0164 14.4933 27.5928 12.1896C26.0332 9.67235 23.8525 7.80867 21.2511 7.80867H3.45298ZM4.31298 10.2418C4.10915 10.5459 3.73059 11.2189 3.35073 12.0925C2.87576 13.1862 2.34124 14.6033 1.84297 16.1629C0.847066 19.2884 0 22.9899 0 25.7336C0 26.1219 0.211605 26.5813 0.552632 26.9308C0.893658 27.2737 1.34211 27.4873 1.71678 27.4873H22.4159C22.7783 27.4873 23.2312 27.2737 23.5742 26.9308C23.9172 26.5813 24.1307 26.1219 24.1307 25.7336C24.1307 22.9899 23.283 19.2884 22.28 16.1629C21.7817 14.6033 21.2446 13.1862 20.7657 12.0925C20.384 11.2189 20.0022 10.5459 19.7951 10.2418H4.31298ZM2.64085 18.8613H21.4452C21.9305 20.7444 22.2735 22.7245 22.2735 24.3164C22.2735 25.2094 21.3287 26.1478 20.384 26.1478H3.67817C2.75345 26.1478 1.81903 25.2094 1.81903 24.3164C1.81903 22.7245 2.15811 20.7444 2.64085 18.8613Z" fill="black"/>
</svg>
