<svg width="30" height="35" viewBox="0 0 30 35" fill="none" xmlns="http://www.w3.org/2000/svg">
    <path d="M15.0026 0C16.1878 0 17.1453 0.957534 17.1453 2.14273V4.15824L18.1497 3.15383C18.7792 2.52441 19.797 2.52441 20.4197 3.15383C21.0424 3.78326 21.0491 4.80106 20.4197 5.42379L17.1386 8.70485V13.4122L21.25 11.015L22.4352 6.5889C22.6629 5.73181 23.5468 5.22291 24.4038 5.45058C25.2609 5.67824 25.7698 6.56212 25.5422 7.41921L25.194 8.71155L26.7742 7.78749C27.7987 7.19155 29.1112 7.53974 29.7071 8.55754C30.3031 9.57534 29.9616 10.8945 28.9371 11.4904L27.243 12.4814L28.696 12.8698C29.5531 13.0975 30.062 13.9813 29.8343 14.8384C29.6067 15.6955 28.7228 16.2044 27.8657 15.9768L23.3325 14.7648L19.2546 17.1419L23.3325 19.519L27.8657 18.307C28.7228 18.0793 29.6067 18.5882 29.8343 19.4453C30.062 20.3024 29.5531 21.1863 28.696 21.4139L27.243 21.8023L28.9371 22.7933C29.9616 23.3893 30.3031 24.7017 29.7071 25.7262C29.1112 26.7507 27.7987 27.0922 26.7742 26.4962L25.194 25.5722L25.5422 26.8645C25.7698 27.7216 25.2609 28.6055 24.4038 28.8331C23.5468 29.0608 22.6629 28.5519 22.4352 27.6948L21.25 23.2687L17.1453 20.8716V25.5789L20.4264 28.8599C21.0558 29.4894 21.0558 30.5072 20.4264 31.1299C19.797 31.7526 18.7792 31.7593 18.1564 31.1299L17.152 30.1255V32.141C17.152 33.3262 16.1945 34.2837 15.0093 34.2837C13.8241 34.2837 12.8666 33.3262 12.8666 32.141V30.1255L11.8622 31.1299C11.2327 31.7593 10.2149 31.7593 9.59221 31.1299C8.96948 30.5005 8.96278 29.4827 9.59221 28.8599L12.8733 25.5789V20.8716L8.7619 23.2687L7.5767 27.6948C7.34903 28.5519 6.46516 29.0608 5.60806 28.8331C4.75097 28.6055 4.24207 27.7216 4.46974 26.8645L4.81793 25.5722L3.22427 26.4895C2.19978 27.0855 0.887357 26.7373 0.291409 25.7195C-0.304538 24.7017 0.043656 23.3826 1.06145 22.7866L2.75555 21.7956L1.30251 21.4072C0.445418 21.1796 -0.0634806 20.2957 0.164185 19.4386C0.39185 18.5815 1.27573 18.0726 2.13282 18.3003L6.66604 19.5123L10.7506 17.1419L6.67273 14.7648L2.13952 15.9768C1.28242 16.2044 0.398546 15.6955 0.170881 14.8384C-0.0567846 13.9813 0.452114 13.0975 1.30921 12.8698L2.76225 12.4814L1.06815 11.4904C0.043656 10.8945 -0.297842 9.58203 0.298105 8.56423C0.894053 7.54644 2.20648 7.19824 3.23097 7.79419L4.81124 8.71824L4.46304 7.42591C4.23538 6.56881 4.74428 5.68494 5.60137 5.45727C6.45846 5.22961 7.34234 5.73851 7.57 6.5956L8.7552 11.0217L12.8599 13.4122V8.69815L9.57882 5.42379C8.94939 4.79436 8.94939 3.77657 9.57882 3.15383C10.2082 2.5311 11.226 2.52441 11.8488 3.15383L12.8532 4.15824V2.14273C12.8532 0.957534 13.8107 0 14.9959 0H15.0026Z" fill="black"/>
</svg>
