<svg width="30" height="27" viewBox="0 0 30 27" fill="none" xmlns="http://www.w3.org/2000/svg">
    <path d="M5.16602 17.7653V21.8746C6.42131 23.4139 8.00379 24.6543 9.79846 25.5054C11.5931 26.3566 13.5549 26.7972 15.5412 26.7953C20.1757 26.7953 24.2614 24.4416 26.6666 20.865V15.1051C25.8434 20.5102 21.1757 24.6517 15.5412 24.6517C10.8745 24.6517 6.87127 21.8114 5.16602 17.7653ZM24.6837 6.83389V4.98823C24.6805 4.58117 24.7472 4.17658 24.8809 3.79208C22.3826 1.35644 19.0303 -0.00466831 15.5412 1.47119e-05C12.4188 -0.0046197 9.3937 1.0858 6.99238 3.08147L6.99774 3.14685L6.99881 3.17579V6.06968C8.05433 4.83678 9.36458 3.84735 10.8393 3.16957C12.314 2.49179 13.9181 2.14178 15.5412 2.14364C19.3075 2.14364 22.6408 3.99358 24.6837 6.83389Z" fill="black"/>
    <path d="M24.1158 13.3976C24.1158 15.6717 23.2124 17.8526 21.6043 19.4607C19.9963 21.0687 17.8154 21.9721 15.5413 21.9721C13.2672 21.9721 11.0862 21.0687 9.47818 19.4607C7.87015 17.8526 6.96677 15.6717 6.96677 13.3976C6.96677 11.1235 7.87015 8.94254 9.47818 7.33452C11.0862 5.72649 13.2672 4.82311 15.5413 4.82311C17.8154 4.82311 19.9963 5.72649 21.6043 7.33452C23.2124 8.94254 24.1158 11.1235 24.1158 13.3976ZM15.5413 20.9003C16.5265 20.9003 17.5021 20.7062 18.4124 20.3292C19.3227 19.9521 20.1498 19.3995 20.8465 18.7028C21.5431 18.0061 22.0958 17.179 22.4728 16.2687C22.8499 15.3585 23.0439 14.3829 23.0439 13.3976C23.0439 12.4123 22.8499 11.4367 22.4728 10.5264C22.0958 9.61618 21.5431 8.78909 20.8465 8.0924C20.1498 7.39571 19.3227 6.84307 18.4124 6.46602C17.5021 6.08898 16.5265 5.89492 15.5413 5.89492C13.5514 5.89492 11.6431 6.68538 10.2361 8.0924C8.82904 9.49943 8.03858 11.4078 8.03858 13.3976C8.03858 15.3874 8.82904 17.2958 10.2361 18.7028C11.6431 20.1098 13.5514 20.9003 15.5413 20.9003ZM30 4.22289C30 3.25826 29.2176 2.47584 28.2529 2.47584C26.8596 2.47584 25.7449 3.60124 25.7556 4.98388V10.9324C25.7556 12.2754 26.5338 13.478 27.7385 14.0225V23.2583C27.7385 23.8156 28.1886 24.2658 28.746 24.2658H28.9925C29.5498 24.2658 30 23.8156 30 23.2583V4.22289ZM5.16613 2.47584C4.97283 2.47584 4.78745 2.55263 4.65077 2.68931C4.51409 2.82599 4.4373 3.01137 4.4373 3.20467V6.08784C4.4373 6.3022 4.26581 6.46298 4.06216 6.46298C3.8478 6.46298 3.68703 6.29149 3.68703 6.08784V3.23682C3.68703 2.84025 3.37621 2.48656 2.97964 2.47584C2.56163 2.46512 2.21865 2.79738 2.21865 3.20467V6.08784C2.21865 6.3022 2.04716 6.46298 1.84352 6.46298C1.62915 6.46298 1.46838 6.29149 1.46838 6.08784V3.23682C1.46838 2.84025 1.15756 2.48656 0.760986 2.47584C0.34298 2.46512 0 2.79738 0 3.20467V8.11357C0 9.08034 0.468382 9.94315 1.18864 10.4812C1.8328 10.8445 1.8328 12.508 1.8328 12.508V23.2475C1.8328 23.8049 2.28296 24.255 2.8403 24.255H3.08682C3.64416 24.255 4.09432 23.8049 4.09432 23.2475V12.508C4.09432 12.508 4.09432 10.9099 4.73848 10.4812C5.10719 10.2063 5.40664 9.84909 5.613 9.43805C5.81935 9.02702 5.92691 8.57349 5.92712 8.11357V3.20467C5.91626 3.00936 5.83165 2.82546 5.69038 2.69016C5.54911 2.55486 5.36173 2.47825 5.16613 2.47584Z" fill="black"/>
</svg>
