<svg width="34" height="34" viewBox="0 0 34 34" fill="none" xmlns="http://www.w3.org/2000/svg">
    <path d="M9.5 32H5.33333C4.44928 32 3.60143 31.6488 2.97631 31.0237C2.35119 30.3986 2 29.5507 2 28.6667V5.33333C2 4.44928 2.35119 3.60143 2.97631 2.97631C3.60143 2.35119 4.44928 2 5.33333 2H28.6667C29.5507 2 30.3986 2.35119 31.0237 2.97631C31.6488 3.60143 32 4.44928 32 5.33333V28.6667C32 29.5507 31.6488 30.3986 31.0237 31.0237C30.3986 31.6488 29.5507 32 28.6667 32H24.5M32 8.66667H2M17 23.6667V32M17 32H13.6667M17 32H20.3333" stroke="black" stroke-width="3" stroke-linecap="round" stroke-linejoin="round"/>
    <path d="M27 5.35006L27.0167 5.33173M22 5.35006L22.0167 5.33173M17 23.6667C19.7617 23.6667 22 21.1801 22 18.1117V13.6667H12V18.1117C12 21.1784 14.2383 23.6667 17 23.6667Z" stroke="black" stroke-width="3" stroke-linecap="round" stroke-linejoin="round"/>
</svg>
