<svg width="34" height="33" viewBox="0 0 34 33" fill="none" xmlns="http://www.w3.org/2000/svg">
    <path d="M17.1528 27.2546V30.6219M12.1018 2H24.6601C25.8557 2.00009 27.0126 2.42431 27.9248 3.19719C28.837 3.97008 29.4455 5.04151 29.642 6.22088L30.6135 12.053L31.9772 20.2439C32.0173 20.4849 32.0044 20.7316 31.9395 20.9671C31.8747 21.2026 31.7594 21.4212 31.6016 21.6076C31.4438 21.7941 31.2473 21.944 31.0258 22.0469C30.8043 22.1498 30.5631 22.2033 30.3188 22.2037H2C2 19.078 3.24168 16.0803 5.45189 13.8701C7.66209 11.6599 10.6598 10.4182 13.7855 10.4182H30.2851M10.4182 27.2546L8.73456 30.6219M23.8873 27.2546L25.571 30.6219" stroke="black" stroke-width="3" stroke-linecap="round" stroke-linejoin="round"/>
</svg>
