<svg width="30" height="43" viewBox="0 0 30 43" fill="none" xmlns="http://www.w3.org/2000/svg">
    <path d="M8.57143 40.7143V42.8571H4.28571V40.7143C3.14907 40.7143 2.05898 40.2628 1.25526 39.459C0.451529 38.6553 0 37.5652 0 36.4286V4.28571C0 3.14907 0.451529 2.05898 1.25526 1.25526C2.05898 0.451529 3.14907 0 4.28571 0H25.7143C26.8509 0 27.941 0.451529 28.7447 1.25526C29.5485 2.05898 30 3.14907 30 4.28571V36.4286C30 37.5652 29.5485 38.6553 28.7447 39.459C27.941 40.2628 26.8509 40.7143 25.7143 40.7143V42.8571H21.4286V40.7143H8.57143ZM4.28571 4.28571V15H25.7143V4.28571H4.28571ZM4.28571 36.4286H25.7143V19.2857H4.28571V36.4286ZM6.42857 21.4286H10.7143V27.8571H6.42857V21.4286ZM6.42857 8.57143H10.7143V12.8571H6.42857V8.57143Z" fill="black"/>
</svg>
