<svg width="30" height="34" viewBox="0 0 30 34" fill="none" xmlns="http://www.w3.org/2000/svg">
    <path d="M11.9861 16.1075C15.5308 15.4219 19.0382 14.5551 22.4942 13.5105V3.00232C22.4942 3.00232 12.7366 0 8.23317 0C6.22836 0.00564313 4.2941 0.740551 2.79134 2.06758C1.28858 3.3946 0.320007 5.22308 0.0663643 7.21178C-0.187278 9.20049 0.291343 11.2135 1.41291 12.8753C2.53447 14.537 4.22235 15.7339 6.16156 16.2426L7.48259 25.5197H8.98375C9.04378 26.2352 9.27402 26.926 9.65528 27.5345C10.0365 28.1429 10.5577 28.6514 11.1754 29.0174C11.8719 29.4315 12.4502 30.0176 12.8551 30.7194C13.2599 31.4213 13.4776 32.2154 13.4872 33.0255H14.9884C14.9816 31.9914 14.7155 30.9755 14.2146 30.0707C13.7138 29.166 12.994 28.4012 12.1212 27.8465C11.0704 27.0209 10.4849 26.4655 10.4849 25.5197H11.9861M2.9791 8.25639C2.9791 6.86292 3.53265 5.52653 4.51798 4.5412C5.50331 3.55587 6.8397 3.00232 8.23317 3.00232C12.0537 3.3628 15.8266 4.1174 19.4919 5.25406V11.2587C15.8266 12.3954 12.0537 13.15 8.23317 13.5105C6.8397 13.5104 5.50331 12.9569 4.51798 11.9716C3.53265 10.9862 2.9791 9.64985 2.9791 8.25639ZM30 10.5081C28.8351 10.5373 27.6839 10.2521 26.6674 9.68249C25.8555 9.21654 24.9311 8.98284 23.9954 9.00697V7.50581C25.1602 7.47662 26.3114 7.76183 27.3279 8.33144C28.1398 8.79739 29.0642 9.03109 30 9.00697M30 6.00464C29.0642 6.02877 28.1398 5.79507 27.3279 5.32912C26.3114 4.75951 25.1602 4.4743 23.9954 4.50348V6.00464C24.9311 5.98052 25.8555 6.21422 26.6674 6.68017C27.6839 7.24978 28.8351 7.53499 30 7.50581M30 12.0093C29.0642 12.0334 28.1398 11.7997 27.3279 11.3338C26.3114 10.7642 25.1602 10.4789 23.9954 10.5081V12.0093C24.9311 11.9852 25.8555 12.2189 26.6674 12.6848C27.6839 13.2544 28.8351 13.5396 30 13.5105M10.4849 8.25639C10.4849 8.70174 10.3528 9.13709 10.1054 9.50739C9.858 9.87768 9.50632 10.1663 9.09487 10.3367C8.68342 10.5072 8.23067 10.5517 7.79387 10.4649C7.35708 10.378 6.95586 10.1635 6.64094 9.84861C6.32603 9.5337 6.11157 9.13247 6.02469 8.69568C5.93781 8.25888 5.9824 7.80613 6.15283 7.39468C6.32326 6.98323 6.61187 6.63156 6.98217 6.38413C7.35246 6.13671 7.78781 6.00464 8.23317 6.00464C8.83037 6.00464 9.4031 6.24188 9.82539 6.66416C10.2477 7.08645 10.4849 7.65919 10.4849 8.25639Z" fill="black"/>
</svg>
