<svg width="30" height="30" viewBox="0 0 30 30" fill="none" xmlns="http://www.w3.org/2000/svg">
    <path d="M25.5 22.5C27.315 22.5 30 21.3 30 18C30 14.7 27.315 13.5 25.5 13.5H22.5V10.5H25.5C28.8 10.5 30 7.815 30 6C30 2.7 27.315 1.5 25.5 1.5H22.5V0H21V1.5H9V0H7.5V1.5H0V4.5H7.5V7.5H4.5C2.685 7.5 0 8.7 0 12C0 15.3 2.685 16.5 4.5 16.5H7.5V19.5H4.5C2.685 19.5 0 20.7 0 24C0 27.3 2.685 28.5 4.5 28.5H7.5V30H9V28.5H21V30H22.5V28.5H30V25.5H22.5V22.5H25.5ZM25.5 16.5C26.175 16.5 27 16.785 27 18C27 19.215 26.175 19.5 25.5 19.5H22.5V16.5H25.5ZM21 13.5H9V10.5H21V13.5ZM25.5 4.5C26.175 4.5 27 4.8 27 6C27 6.675 26.715 7.5 25.5 7.5H22.5V4.5H25.5ZM9 4.5H21V7.5H9V4.5ZM4.5 13.5C3.825 13.5 3 13.215 3 12C3 10.785 3.825 10.5 4.5 10.5H7.5V13.5H4.5ZM9 16.5H21V19.5H9V16.5ZM4.5 25.5C3.825 25.5 3 25.215 3 24C3 22.785 3.825 22.5 4.5 22.5H7.5V25.5H4.5ZM21 25.5H9V22.5H21V25.5Z" fill="black"/>
</svg>
