<svg width="34" height="32" viewBox="0 0 34 32" fill="none" xmlns="http://www.w3.org/2000/svg">
    <path d="M25.3339 28.6643H29.3336C30.0408 28.6643 30.719 28.3834 31.219 27.8834C31.7191 27.3833 32 26.7051 32 25.9979V12.6658C32 11.9586 31.7191 11.2804 31.219 10.7803C30.719 10.2803 30.0408 9.99933 29.3336 9.99933M29.3336 9.99933H24.0007M29.3336 9.99933V7.03159C29.3336 6.89591 29.3068 6.76155 29.2549 6.63619C29.203 6.51083 29.1269 6.39693 29.0309 6.30098C28.935 6.20504 28.8211 6.12893 28.6957 6.077C28.5704 6.02508 28.436 5.99835 28.3003 5.99835H25.034C24.8983 5.99835 24.7639 6.02508 24.6385 6.077C24.5132 6.12893 24.3993 6.20504 24.3033 6.30098C24.2074 6.39693 24.1313 6.51083 24.0794 6.63619C24.0274 6.76155 24.0007 6.89591 24.0007 7.03159V9.99933M24.0007 9.99933C23.2935 9.99933 22.6153 10.2803 22.1153 10.7803C21.6152 11.2804 21.3343 11.9586 21.3343 12.6658V20.665M32 15.3322H21.3343M32 23.3315H25.3339M2 24.894L5.91565 28.0271C7.15642 29.0198 8.69822 29.5605 10.2873 29.5603H18.3332C18.6396 29.5603 18.943 29.4999 19.2261 29.3827C19.5091 29.2654 19.7663 29.0936 19.983 28.8769C20.1996 28.6603 20.3715 28.403 20.4887 28.12C20.606 27.8369 20.6663 27.5335 20.6663 27.2271C20.6663 26.9207 20.606 26.6174 20.4887 26.3343C20.3715 26.0512 20.1996 25.794 19.983 25.5774C19.7663 25.3607 19.5091 25.1889 19.2261 25.0716C18.943 24.9544 18.6396 24.894 18.3332 24.894H12.3044" stroke="black" stroke-width="3" stroke-linecap="round" stroke-linejoin="round"/>
    <path d="M2.21094 17.8946H6.87719C8.25973 17.8946 9.61161 18.3052 10.7622 19.0718L13.4286 20.849C13.6814 21.0006 13.9007 21.202 14.0733 21.4409C14.2459 21.6799 14.3682 21.9513 14.4328 22.2389C14.4973 22.5265 14.5028 22.8242 14.4489 23.114C14.395 23.4038 14.2829 23.6796 14.1192 23.9247C13.8247 24.3661 13.3793 24.6847 12.8665 24.821C12.3537 24.9572 11.8088 24.9016 11.3341 24.6647L7.83177 22.5608M26.6661 2V5.99964M18.6668 4.66643L19.2628 3.4732C19.4843 3.03041 19.8248 2.65805 20.2461 2.39785C20.6673 2.13766 21.1527 1.99989 21.6479 2H30.6657M17.3336 11.9991C17.3336 12.8831 16.9824 13.7309 16.3574 14.3559C15.7323 14.981 14.8845 15.3321 14.0006 15.3321C13.1166 15.3321 12.2688 14.981 11.6437 14.3559C11.0187 13.7309 10.6675 12.8831 10.6675 11.9991C10.6675 9.49933 14.0006 5.33304 14.0006 5.33304C14.0006 5.33304 17.3336 9.49933 17.3336 11.9991Z" stroke="black" stroke-width="3" stroke-linecap="round" stroke-linejoin="round"/>
</svg>
