<svg width="30" height="30" viewBox="0 0 30 30" fill="none" xmlns="http://www.w3.org/2000/svg">
    <path d="M6.42857 0C4.72361 0 3.08848 0.677294 1.88289 1.88289C0.677294 3.08848 0 4.72361 0 6.42857V23.5714C0 25.2764 0.677294 26.9115 1.88289 28.1171C3.08848 29.3227 4.72361 30 6.42857 30H23.5714C25.2764 30 26.9115 29.3227 28.1171 28.1171C29.3227 26.9115 30 25.2764 30 23.5714V6.42857C30 4.72361 29.3227 3.08848 28.1171 1.88289C26.9115 0.677294 25.2764 0 23.5714 0H6.42857ZM2.14286 23.5714V10.7143H27.8571V23.5714C27.8571 24.7081 27.4056 25.7982 26.6019 26.6019C25.7982 27.4056 24.7081 27.8571 23.5714 27.8571H6.42857C5.29193 27.8571 4.20184 27.4056 3.39811 26.6019C2.59439 25.7982 2.14286 24.7081 2.14286 23.5714ZM27.8571 8.57143H2.14286V6.42857C2.14286 5.29193 2.59439 4.20184 3.39811 3.39811C4.20184 2.59439 5.29193 2.14286 6.42857 2.14286H23.5714C24.7081 2.14286 25.7982 2.59439 26.6019 3.39811C27.4056 4.20184 27.8571 5.29193 27.8571 6.42857V8.57143ZM8.03571 6.96429C8.24677 6.96429 8.45575 6.92272 8.65074 6.84195C8.84573 6.76118 9.0229 6.6428 9.17214 6.49356C9.32137 6.34433 9.43975 6.16716 9.52052 5.97217C9.60129 5.77718 9.64286 5.5682 9.64286 5.35714C9.64286 5.14609 9.60129 4.9371 9.52052 4.74212C9.43975 4.54713 9.32137 4.36996 9.17214 4.22072C9.0229 4.07148 8.84573 3.9531 8.65074 3.87234C8.45575 3.79157 8.24677 3.75 8.03571 3.75C7.60947 3.75 7.20069 3.91932 6.89929 4.22072C6.59789 4.52212 6.42857 4.9309 6.42857 5.35714C6.42857 5.78338 6.59789 6.19217 6.89929 6.49356C7.20069 6.79496 7.60947 6.96429 8.03571 6.96429ZM21.9643 6.96429C22.1753 6.96429 22.3843 6.92272 22.5793 6.84195C22.7743 6.76118 22.9515 6.6428 23.1007 6.49356C23.2499 6.34433 23.3683 6.16716 23.4491 5.97217C23.5299 5.77718 23.5714 5.5682 23.5714 5.35714C23.5714 5.14609 23.5299 4.9371 23.4491 4.74212C23.3683 4.54713 23.2499 4.36996 23.1007 4.22072C22.9515 4.07148 22.7743 3.9531 22.5793 3.87234C22.3843 3.79157 22.1753 3.75 21.9643 3.75C21.538 3.75 21.1293 3.91932 20.8279 4.22072C20.5265 4.52212 20.3571 4.9309 20.3571 5.35714C20.3571 5.78338 20.5265 6.19217 20.8279 6.49356C21.1293 6.79496 21.538 6.96429 21.9643 6.96429ZM16.6071 5.35714C16.6071 5.78338 16.4378 6.19217 16.1364 6.49356C15.835 6.79496 15.4262 6.96429 15 6.96429C14.5738 6.96429 14.165 6.79496 13.8636 6.49356C13.5622 6.19217 13.3929 5.78338 13.3929 5.35714C13.3929 4.9309 13.5622 4.52212 13.8636 4.22072C14.165 3.91932 14.5738 3.75 15 3.75C15.4262 3.75 15.835 3.91932 16.1364 4.22072C16.4378 4.52212 16.6071 4.9309 16.6071 5.35714ZM6.42857 12.8571C5.86025 12.8571 5.31521 13.0829 4.91334 13.4848C4.51148 13.8866 4.28571 14.4317 4.28571 15V23.5714C4.28571 24.1397 4.51148 24.6848 4.91334 25.0867C5.31521 25.4885 5.86025 25.7143 6.42857 25.7143H23.5714C24.1397 25.7143 24.6848 25.4885 25.0867 25.0867C25.4885 24.6848 25.7143 24.1397 25.7143 23.5714V15C25.7143 14.4317 25.4885 13.8866 25.0867 13.4848C24.6848 13.0829 24.1397 12.8571 23.5714 12.8571H6.42857ZM6.42857 23.5714V15H23.5714V23.5714H6.42857Z" fill="black"/>
</svg>
