<svg width="30" height="24" viewBox="0 0 30 24" fill="none" xmlns="http://www.w3.org/2000/svg">
    <path d="M29.7346 17.7232C29.1461 18.4627 27.7138 18.9887 27.7138 18.9887L17.032 22.8219V19.9939L24.891 17.1919C25.7816 16.8743 25.9222 16.4211 25.1931 16.1816C24.4692 15.942 23.1567 16.0097 22.2662 16.3326L17.032 18.1815V15.2441C18.2403 14.8379 19.485 14.5358 20.9746 14.3692C23.1047 14.1348 25.7087 14.4004 27.7555 15.1764C30.0575 15.9055 30.3179 16.9836 29.7346 17.7232ZM18.0476 12.9057V5.66642C18.0476 4.81749 17.8914 4.03628 17.0945 3.81233C16.4852 3.61442 16.105 4.18211 16.105 5.03103V23.15L11.2198 21.598V0C13.2978 0.3854 16.3237 1.29682 17.9486 1.84367C22.0891 3.26548 23.4901 5.03623 23.4901 9.02043C23.4901 12.9005 21.0943 14.3744 18.0476 12.9057ZM2.25142 19.697C-0.113057 19.0304 -0.508872 17.6398 0.569205 16.843C1.56395 16.1035 3.26179 15.5462 3.26179 15.5462L10.2667 13.0567V15.8951L5.22525 17.6971C4.33466 18.0148 4.19925 18.4679 4.92318 18.7075C5.6471 18.9471 6.95955 18.8794 7.85013 18.5565L10.2667 17.6763V20.2179C7.57931 20.7022 4.98568 20.598 2.25142 19.697Z" fill="black"/>
</svg>
