<svg width="30" height="30" viewBox="0 0 30 30" fill="none" xmlns="http://www.w3.org/2000/svg">
    <path d="M0 26.6667H26.6667V30H0V26.6667ZM29 1C28.3333 0.333333 27.6667 0 26.6667 0H0V16.6667C0 18.5 0.666666 20 2 21.3333C3.33333 22.6667 4.83333 23.3333 6.66667 23.3333H16.6667C18.5 23.3333 20 22.6667 21.3333 21.3333C22.6667 20 23.3333 18.5 23.3333 16.6667V11.6667H26.6667C27.6667 11.6667 28.3333 11.3333 29 10.6667C29.6667 10 30 9.33333 30 8.33333V3.33333C30 2.5 29.6667 1.66667 29 1ZM20 3.33333V16.6667C20 17.6667 19.6667 18.3333 19 19C18.3333 19.6667 17.6667 20 16.6667 20H6.66667C5.66667 20 5 19.6667 4.33333 19C3.66667 18.3333 3.33333 17.5 3.33333 16.6667V3.33333H10V5.66667L7 8C6.66667 8.16667 6.66667 8.5 6.66667 8.66667V15.8333C6.66667 16.3333 7 16.6667 7.5 16.6667H14.1667C14.6667 16.6667 15 16.3333 15 15.8333V8.66667C15 8.33333 14.8333 8.16667 14.6667 8L11.6667 5.66667V3.33333H20ZM26.6667 8.33333H23.3333V3.33333H26.6667V8.33333Z" fill="black"/>
</svg>
