<svg width="34" height="34" viewBox="0 0 34 34" fill="none" xmlns="http://www.w3.org/2000/svg">
    <path d="M26 12.4999H2V18.4999H26V12.4999Z" stroke="black" stroke-width="3" stroke-miterlimit="2" stroke-linecap="round" stroke-linejoin="round"/>
    <path d="M26 8V23C26 23.7956 25.6839 24.5587 25.1213 25.1213C24.5587 25.6839 23.7956 26 23 26H8M8 26H5C4.20435 26 3.44129 25.6839 2.87868 25.1213C2.31607 24.5587 2 23.7956 2 23V5C2 4.20435 2.31607 3.44129 2.87868 2.87868C3.44129 2.31607 4.20435 2 5 2H29C29.7956 2 30.5587 2.31607 31.1213 2.87868C31.6839 3.44129 32 4.20435 32 5V29C32 30.6575 30.6575 32 29 32H11C9.3425 32 8 30.6575 8 29V26Z" stroke="black" stroke-width="3" stroke-miterlimit="2" stroke-linecap="round" stroke-linejoin="round"/>
</svg>
