<svg width="30" height="25" viewBox="0 0 30 25" fill="none" xmlns="http://www.w3.org/2000/svg">
    <g clip-path="url(#clip0_265_199)">
        <path d="M3 3.03191V16.6755H27V3.03191H3ZM0 3.03191C0 1.35962 1.34531 0 3 0H27C28.6547 0 30 1.35962 30 3.03191V16.6755C30 18.3478 28.6547 19.7074 27 19.7074H3C1.34531 19.7074 0 18.3478 0 16.6755V3.03191ZM6 21.2234H24C24.8297 21.2234 25.5 21.9008 25.5 22.7394C25.5 23.5779 24.8297 24.2553 24 24.2553H6C5.17031 24.2553 4.5 23.5779 4.5 22.7394C4.5 21.9008 5.17031 21.2234 6 21.2234Z" fill="black"/>
    </g>
    <defs>
        <clipPath id="clip0_265_199">
            <rect width="30" height="24.2553" fill="white"/>
        </clipPath>
    </defs>
</svg>
