<svg width="34" height="41" viewBox="0 0 34 41" fill="none" xmlns="http://www.w3.org/2000/svg">
    <path d="M30.125 2H3.875C2.83947 2 2 2.83947 2 3.875V37.625C2 38.6605 2.83947 39.5 3.875 39.5H30.125C31.1605 39.5 32 38.6605 32 37.625V3.875C32 2.83947 31.1605 2 30.125 2Z" stroke="black" stroke-width="3"/>
    <path d="M2 12.7812H32" stroke="black" stroke-width="3" stroke-linecap="round" stroke-linejoin="round"/>
    <path d="M20.75 9.5C21.7855 9.5 22.625 8.66053 22.625 7.625C22.625 6.58947 21.7855 5.75 20.75 5.75C19.7145 5.75 18.875 6.58947 18.875 7.625C18.875 8.66053 19.7145 9.5 20.75 9.5Z" fill="black"/>
    <path d="M26.375 9.5C27.4105 9.5 28.25 8.66053 28.25 7.625C28.25 6.58947 27.4105 5.75 26.375 5.75C25.3395 5.75 24.5 6.58947 24.5 7.625C24.5 8.66053 25.3395 9.5 26.375 9.5Z" fill="black"/>
    <path d="M17 32.9375C20.6244 32.9375 23.5625 29.9994 23.5625 26.375C23.5625 22.7506 20.6244 19.8125 17 19.8125C13.3756 19.8125 10.4375 22.7506 10.4375 26.375C10.4375 29.9994 13.3756 32.9375 17 32.9375Z" stroke="black" stroke-width="3"/>
</svg>
