<svg width="30" height="22" viewBox="0 0 30 22" fill="none" xmlns="http://www.w3.org/2000/svg">
    <path d="M2.54078 8.01234C5.77573 4.90867 10.164 3.00053 15.0023 3.00053C19.8407 3.00053 24.229 4.90867 27.4639 8.01234C28.064 8.58432 29.0111 8.56557 29.583 7.97015C30.155 7.37473 30.1362 6.423 29.5408 5.85103C25.7714 2.22695 20.6471 0 15.0023 0C9.3576 0 4.23327 2.22695 0.459168 5.84634C-0.136249 6.423 -0.155002 7.37004 0.416973 7.97015C0.988948 8.57025 1.94068 8.58901 2.53609 8.01234H2.54078ZM15.0023 10.5018C17.6653 10.5018 20.0939 11.4911 21.9504 13.1273C22.574 13.6758 23.521 13.6149 24.0696 12.996C24.6181 12.3772 24.5571 11.4254 23.9383 10.8769C21.5566 8.77654 18.4248 7.50132 15.0023 7.50132C11.5799 7.50132 8.44807 8.77654 6.07109 10.8769C5.44754 11.4254 5.39128 12.3725 5.93982 12.996C6.48835 13.6196 7.43539 13.6758 8.05894 13.1273C9.91083 11.4911 12.3394 10.5018 15.007 10.5018H15.0023ZM18.0029 18.0032C18.0029 17.2074 17.6867 16.4442 17.124 15.8815C16.5613 15.3188 15.7981 15.0026 15.0023 15.0026C14.2066 15.0026 13.4434 15.3188 12.8807 15.8815C12.3179 16.4442 12.0018 17.2074 12.0018 18.0032C12.0018 18.7989 12.3179 19.5621 12.8807 20.1249C13.4434 20.6876 14.2066 21.0037 15.0023 21.0037C15.7981 21.0037 16.5613 20.6876 17.124 20.1249C17.6867 19.5621 18.0029 18.7989 18.0029 18.0032Z" fill="black"/>
</svg>
